<svg width="64" height="39" viewBox="0 0 64 39" fill="none" xmlns="http://www.w3.org/2000/svg">
<g clip-path="url(#clip0_1_57)">
<path d="M31.6388 38.8875C31.4221 38.8875 31.2199 38.8301 31.032 38.7296L29.1106 37.5956C28.8216 37.4376 28.9661 37.3803 29.0529 37.3516C29.4429 37.2224 29.5151 37.1936 29.9196 36.964C29.963 36.9352 30.0209 36.9496 30.0641 36.9783L31.5378 37.854C31.5955 37.8827 31.6678 37.8827 31.711 37.854L37.4754 34.538C37.5331 34.5093 37.5621 34.4518 37.5621 34.3801V27.7625C37.5621 27.6906 37.5331 27.6334 37.4754 27.6045L31.711 24.303C31.6533 24.2741 31.581 24.2741 31.5378 24.303L25.7734 27.6045C25.7156 27.6332 25.6866 27.705 25.6866 27.7624V34.38C25.6866 34.4375 25.7156 34.5092 25.7734 34.538L27.3481 35.4423C28.2005 35.8729 28.735 35.3705 28.735 34.8681V28.3366C28.735 28.2505 28.8073 28.1643 28.9084 28.1643H29.6451C29.7319 28.1643 29.8185 28.2361 29.8185 28.3366V34.8681C29.8185 36.0021 29.1973 36.6625 28.1138 36.6625C27.7815 36.6625 27.5215 36.6625 26.7846 36.3035L25.2678 35.4423C24.8921 35.2271 24.661 34.825 24.661 34.3944V27.7768C24.661 27.3462 24.8921 26.9442 25.2678 26.7289L31.032 23.4129C31.3933 23.212 31.8845 23.212 32.2456 23.4129L38.0099 26.7289C38.3855 26.9442 38.6168 27.3462 38.6168 27.7768V34.3944C38.6168 34.825 38.3855 35.2271 38.0099 35.4423L32.2456 38.7583C32.0578 38.8445 31.8411 38.8875 31.6389 38.8875H31.6388ZM33.4158 34.337C30.8876 34.337 30.3675 33.1886 30.3675 32.2125C30.3675 32.1263 30.4398 32.0402 30.5409 32.0402H31.2921C31.3788 32.0402 31.451 32.0976 31.451 32.1838C31.5666 32.9446 31.8989 33.3178 33.4303 33.3178C34.6438 33.3178 35.164 33.045 35.164 32.3991C35.164 32.0258 35.0194 31.7532 33.1269 31.5665C31.5521 31.4085 30.5698 31.0641 30.5698 29.8152C30.5698 28.6525 31.5523 27.9634 33.1991 27.9634C35.0483 27.9634 35.9585 28.5951 36.0741 29.973C36.0741 30.0162 36.0596 30.0592 36.0308 30.1023C36.0018 30.131 35.9585 30.1597 35.9151 30.1597H35.1639C35.0916 30.1597 35.0194 30.1023 35.005 30.0305C34.8316 29.2411 34.3838 28.9826 33.1991 28.9826C31.87 28.9826 31.711 29.442 31.711 29.7864C31.711 30.2028 31.8989 30.3319 33.6903 30.5616C35.4673 30.7914 36.3053 31.1215 36.3053 32.356C36.2908 33.6192 35.2506 34.337 33.4158 34.337Z" fill="#539E43"/>
<path d="M13.7535 13.0056C13.7535 12.7473 13.609 12.5031 13.3779 12.3739L7.25237 8.87138C7.15112 8.81388 7.03562 8.78518 6.92012 8.77078H6.86224C6.74674 8.77078 6.63112 8.81388 6.52999 8.87138L0.404495 12.3739C0.173245 12.5031 0.0288696 12.7472 0.0288696 13.0056L0.0433696 22.4224C0.0433696 22.5516 0.11562 22.6807 0.23112 22.7382C0.346745 22.81 0.49112 22.81 0.59237 22.7382L4.23299 20.6711C4.46412 20.5419 4.60862 20.2979 4.60862 20.0395V15.6325C4.60862 15.3742 4.75299 15.1301 4.98424 15.001L6.52999 14.1109C6.64562 14.0391 6.77562 14.0103 6.90562 14.0103C7.03562 14.0103 7.16562 14.0391 7.26687 14.1109L8.81262 15.001C9.04387 15.1301 9.18824 15.3741 9.18824 15.6325V20.0395C9.18824 20.2979 9.33274 20.5419 9.56387 20.6711L13.2045 22.7382C13.2607 22.7734 13.3258 22.7921 13.3923 22.7921C13.4588 22.7921 13.5239 22.7734 13.5801 22.7382C13.6957 22.6807 13.768 22.5516 13.768 22.4224L13.7535 13.0056ZM43.1964 0.0430993C43.0809 -0.0144071 42.9364 -0.0144071 42.8351 0.0430993C42.7196 0.114889 42.6474 0.229653 42.6474 0.358825V9.68964C42.6474 9.77571 42.6041 9.86178 42.5174 9.91929C42.4307 9.96227 42.344 9.96227 42.2574 9.91929L40.726 9.04365C40.6137 8.98014 40.4868 8.94674 40.3576 8.94674C40.2284 8.94674 40.1014 8.98014 39.9891 9.04365L33.8636 12.5606C33.6325 12.6898 33.488 12.9338 33.488 13.1922V20.2117C33.488 20.47 33.6325 20.7142 33.8636 20.8434L39.9891 24.3603C40.1014 24.4239 40.2284 24.4573 40.3576 24.4573C40.4868 24.4573 40.6137 24.4239 40.726 24.3603L46.8515 20.8434C47.0826 20.7142 47.2271 20.4702 47.2271 20.2117V2.71311C47.2271 2.44036 47.0826 2.19642 46.8515 2.06712L43.1965 0.0430993H43.1964ZM42.633 17.9006C42.633 17.9724 42.6041 18.0298 42.5462 18.0585L40.4515 19.2643C40.4222 19.2784 40.3901 19.2858 40.3576 19.2858C40.325 19.2858 40.2929 19.2784 40.2636 19.2643L38.1689 18.0585C38.111 18.0298 38.0821 17.958 38.0821 17.9006V15.489C38.0821 15.4172 38.111 15.3598 38.1689 15.3311L40.2636 14.1252C40.2929 14.111 40.325 14.1037 40.3576 14.1037C40.3901 14.1037 40.4222 14.111 40.4515 14.1252L42.5462 15.3311C42.6041 15.3597 42.633 15.4316 42.633 15.489V17.9006ZM63.581 15.4316C63.8122 15.3024 63.9422 15.0583 63.9422 14.7999V13.0917C63.9422 12.8334 63.7977 12.5893 63.581 12.4601L57.4989 8.95758C57.3866 8.89406 57.2596 8.86066 57.1304 8.86066C57.0012 8.86066 56.8743 8.89406 56.762 8.95758L50.6365 12.4744C50.4052 12.6036 50.2609 12.8476 50.2609 13.106V20.1256C50.2609 20.384 50.4054 20.628 50.6365 20.7572L56.7186 24.2024C56.9499 24.3315 57.2244 24.3315 57.4411 24.2024L61.125 22.1642C61.2406 22.1067 61.3129 21.9775 61.3129 21.8483C61.3129 21.7191 61.2406 21.59 61.125 21.5325L54.9706 18.0155C54.855 17.9437 54.7827 17.829 54.7827 17.6998V15.5035C54.7827 15.3743 54.855 15.2452 54.9706 15.1876L56.892 14.0966C56.9482 14.0615 57.0133 14.0428 57.0798 14.0428C57.1463 14.0428 57.2114 14.0615 57.2676 14.0966L59.1891 15.1876C59.3047 15.2594 59.3769 15.3742 59.3769 15.5035V17.2261C59.3769 17.3552 59.4491 17.4844 59.5647 17.5418C59.621 17.577 59.6861 17.5957 59.7526 17.5957C59.819 17.5957 59.8841 17.577 59.9404 17.5418L63.581 15.4316Z" fill="#333333"/>
<path d="M57.0365 15.1013C57.0579 15.0873 57.0831 15.0798 57.1088 15.0798C57.1344 15.0798 57.1596 15.0873 57.181 15.1013L58.3513 15.776C58.3945 15.8048 58.4234 15.8478 58.4234 15.9052V17.2546C58.4234 17.312 58.3946 17.3551 58.3513 17.3838L57.181 18.0585C57.1596 18.0725 57.1344 18.08 57.1088 18.08C57.0831 18.08 57.0579 18.0725 57.0365 18.0585L55.8664 17.3838C55.823 17.3551 55.7941 17.312 55.7941 17.2546V15.9053C55.7941 15.8478 55.8229 15.8047 55.8664 15.7761L57.0365 15.1013Z" fill="#539E43"/>
<mask id="mask0_1_57" style="mask-type:alpha" maskUnits="userSpaceOnUse" x="16" y="8" width="15" height="17">
<path d="M23.9964 8.98626C23.8841 8.92276 23.7572 8.88937 23.628 8.88937C23.4988 8.88937 23.3719 8.92276 23.2596 8.98626L17.1775 12.4743C16.9463 12.6034 16.8163 12.8475 16.8163 13.1058V20.0968C16.8163 20.3551 16.9608 20.5992 17.1775 20.7284L23.2596 24.2166C23.3719 24.2801 23.4988 24.3135 23.628 24.3135C23.7572 24.3135 23.8841 24.2801 23.9964 24.2166L30.0786 20.7284C30.3098 20.5992 30.4399 20.3551 30.4399 20.0968V13.106C30.4399 12.8476 30.2953 12.6036 30.0786 12.4744L23.9964 8.98626Z" fill="white"/>
</mask>
<g mask="url(#mask0_1_57)">
<path d="M23.9964 8.98626C23.8841 8.92276 23.7572 8.88937 23.628 8.88937C23.4988 8.88937 23.3719 8.92276 23.2596 8.98626L17.1775 12.4743C16.9463 12.6034 16.8163 12.8475 16.8163 13.1058V20.0968C16.8163 20.3551 16.9608 20.5992 17.1775 20.7284L23.2596 24.2166C23.3719 24.2801 23.4988 24.3135 23.628 24.3135C23.7572 24.3135 23.8841 24.2801 23.9964 24.2166L30.0786 20.7284C30.3098 20.5992 30.4399 20.3551 30.4399 20.0968V13.106C30.4399 12.8476 30.2953 12.6036 30.0786 12.4744L23.9964 8.98626Z" fill="url(#paint0_linear_1_57)"/>
<path d="M30.093 12.4744L23.982 8.98625C23.922 8.95612 23.859 8.93207 23.7941 8.91446L16.9463 20.5707C17.003 20.6396 17.0715 20.6979 17.1486 20.743L23.2596 24.2313C23.433 24.3318 23.6353 24.3604 23.823 24.3029L30.252 12.6181C30.2086 12.5607 30.1508 12.5175 30.093 12.4745V12.4744Z" fill="url(#paint1_linear_1_57)"/>
<path fill-rule="evenodd" clip-rule="evenodd" d="M30.1075 20.7285C30.2809 20.628 30.4109 20.4557 30.4688 20.2692L23.7651 8.90006C23.5918 8.87137 23.4039 8.88565 23.2451 8.98613L17.1774 12.4601L23.7218 24.3172C23.8169 24.3017 23.9094 24.2728 23.9963 24.2312L30.1074 20.7286L30.1075 20.7285Z" fill="url(#paint2_linear_1_57)"/>
<path fill-rule="evenodd" clip-rule="evenodd" d="M30.1075 20.7285L24.0109 24.2167C23.9248 24.2603 23.8321 24.2894 23.7364 24.3028L23.852 24.5182L30.6131 20.6281V20.5419L30.4398 20.2548C30.4109 20.4557 30.2809 20.628 30.1075 20.7285Z" fill="url(#paint3_linear_1_57)"/>
<path fill-rule="evenodd" clip-rule="evenodd" d="M30.1075 20.7285L24.0109 24.2167C23.9248 24.2603 23.8321 24.2894 23.7364 24.3028L23.852 24.5182L30.6131 20.6281V20.5419L30.4398 20.2548C30.4109 20.4557 30.2809 20.628 30.1075 20.7285Z" fill="url(#paint4_linear_1_57)"/>
</g>
</g>
<defs>
<linearGradient id="paint0_linear_1_57" x1="26.1059" y1="11.5866" x2="19.4998" y2="22.0333" gradientUnits="userSpaceOnUse">
<stop stop-color="#41873F"/>
<stop offset="0.3288" stop-color="#418B3D"/>
<stop offset="0.6352" stop-color="#419637"/>
<stop offset="0.9319" stop-color="#3FA92D"/>
<stop offset="1" stop-color="#3FAE2A"/>
</linearGradient>
<linearGradient id="paint1_linear_1_57" x1="22.7046" y1="17.4203" x2="39.352" y2="8.31775" gradientUnits="userSpaceOnUse">
<stop offset="0.1376" stop-color="#41873F"/>
<stop offset="0.4032" stop-color="#54A044"/>
<stop offset="0.7136" stop-color="#66B848"/>
<stop offset="0.9081" stop-color="#6CC04A"/>
</linearGradient>
<linearGradient id="paint2_linear_1_57" x1="16.594" y1="16.6016" x2="30.668" y2="16.6016" gradientUnits="userSpaceOnUse">
<stop offset="0.09192" stop-color="#6CC04A"/>
<stop offset="0.2864" stop-color="#66B848"/>
<stop offset="0.5968" stop-color="#54A044"/>
<stop offset="0.8624" stop-color="#41873F"/>
</linearGradient>
<linearGradient id="paint3_linear_1_57" x1="16.5941" y1="22.3982" x2="30.6679" y2="22.3982" gradientUnits="userSpaceOnUse">
<stop offset="0.09192" stop-color="#6CC04A"/>
<stop offset="0.2864" stop-color="#66B848"/>
<stop offset="0.5968" stop-color="#54A044"/>
<stop offset="0.8624" stop-color="#41873F"/>
</linearGradient>
<linearGradient id="paint4_linear_1_57" x1="32.7183" y1="11.256" x2="29.1966" y2="29.8281" gradientUnits="userSpaceOnUse">
<stop stop-color="#41873F"/>
<stop offset="0.3288" stop-color="#418B3D"/>
<stop offset="0.6352" stop-color="#419637"/>
<stop offset="0.9319" stop-color="#3FA92D"/>
<stop offset="1" stop-color="#3FAE2A"/>
</linearGradient>
<clipPath id="clip0_1_57">
<rect width="64" height="39" fill="white"/>
</clipPath>
</defs>
</svg>
