<svg width="52" height="47" viewBox="0 0 52 47" fill="none" xmlns="http://www.w3.org/2000/svg">
<g clip-path="url(#clip0_1_76)">
<path d="M42.7544 15.2182C42.201 15.0256 41.6429 14.847 41.0806 14.6829C41.1751 14.2912 41.262 13.9043 41.3392 13.5242C42.6063 7.28204 41.7779 2.25325 38.9486 0.597527C36.2359 -0.989754 31.7994 0.665347 27.3189 4.62262C26.8773 5.01333 26.4455 5.41529 26.024 5.82813C25.7418 5.55361 25.4546 5.28441 25.1625 5.02068C20.4667 0.789444 15.7599 -0.993877 12.9336 0.666584C10.2233 2.25881 9.42073 6.98623 10.5615 12.902C10.675 13.4879 10.8031 14.0708 10.9458 14.6501C10.2795 14.8422 9.63666 15.0467 9.02139 15.2644C3.51589 17.2124 0 20.2652 0 23.4317C0 26.7021 3.77447 29.9824 9.50869 31.9715C9.97357 32.1321 10.4423 32.2809 10.9145 32.4178C10.7612 33.0417 10.625 33.6698 10.5062 34.3015C9.4187 40.1146 10.268 44.7303 12.971 46.3125C15.7627 47.9463 20.4484 46.2671 25.0108 42.2195C25.3807 41.8905 25.7426 41.5521 26.0959 41.2047C26.5524 41.6517 27.0211 42.0858 27.5015 42.5063C31.9211 46.3656 36.2858 47.9241 38.9862 46.3376C41.7753 44.699 42.6818 39.7405 41.5049 33.7078C41.4122 33.2352 41.3083 32.7649 41.1931 32.2974C41.5222 32.1984 41.8452 32.0966 42.16 31.9906C48.1213 29.9863 52 26.7458 52 23.4317C52 20.2536 48.3706 17.1803 42.7544 15.2182ZM41.4615 29.8509C41.1771 29.9463 40.8854 30.0385 40.588 30.1282C39.9299 28.0138 39.0418 25.7656 37.9549 23.4426C38.9921 21.1751 39.846 18.9556 40.4857 16.855C41.0176 17.0112 41.5338 17.176 42.0314 17.3497C46.8435 19.031 49.7786 21.5164 49.7786 23.4317C49.7786 25.4717 46.6087 28.1199 41.4615 29.8509ZM39.3258 34.1456C39.8462 36.8131 39.9204 39.2249 39.5757 41.1105C39.2661 42.8048 38.6433 43.9342 37.8731 44.3867C36.2345 45.3494 32.7299 44.0981 28.9504 40.7974C28.5036 40.4064 28.0676 40.0029 27.6429 39.5873C29.1082 37.9611 30.5725 36.0706 32.0017 33.9708C34.5156 33.7445 36.8905 33.3743 39.0443 32.869C39.148 33.2922 39.2419 33.7179 39.3258 34.1456ZM17.7279 44.2203C16.1269 44.794 14.8517 44.8105 14.0808 44.3595C12.4406 43.3995 11.7587 39.6933 12.6888 34.722C12.7994 34.1346 12.926 33.5503 13.0685 32.97C15.1984 33.4483 17.5561 33.7921 20.0759 33.9995C21.5148 36.0541 23.0214 37.9425 24.5397 39.5962C24.2171 39.9131 23.8867 40.2218 23.5491 40.5222C21.5315 42.3119 19.5098 43.5817 17.7279 44.2203ZM10.2273 29.8383C7.69173 28.9587 5.59772 27.8157 4.16244 26.5683C2.87259 25.4475 2.22158 24.3346 2.22158 23.4317C2.22158 21.5101 5.04441 19.059 9.75264 17.3932C10.324 17.1912 10.922 17.0005 11.5426 16.8216C12.1934 18.9696 13.0469 21.2155 14.077 23.4865C13.0335 25.7912 12.1678 28.0729 11.5107 30.2463C11.0797 30.121 10.6518 29.985 10.2273 29.8383ZM12.7416 12.4689C11.7644 7.40057 12.4134 3.57729 14.0467 2.6177C15.7863 1.59566 19.633 3.05286 23.6876 6.7065C23.952 6.94529 24.2121 7.18891 24.4678 7.43726C22.957 9.08371 21.4642 10.9581 20.0381 13.0006C17.5925 13.2306 15.2514 13.6 13.0991 14.095C12.9665 13.5562 12.8473 13.0141 12.7416 12.4691V12.4689ZM35.1721 18.09C34.6637 17.1988 34.1365 16.3189 33.5908 15.4508C35.2499 15.6637 36.8396 15.9463 38.3323 16.2918C37.8842 17.7496 37.3256 19.2736 36.6681 20.8362C36.1875 19.9108 35.6887 18.9952 35.1721 18.09ZM26.025 9.04846C27.0495 10.175 28.0757 11.4327 29.0851 12.7973C27.0376 12.6992 24.9866 12.6988 22.9391 12.7961C23.9495 11.444 24.9844 10.188 26.025 9.04846ZM16.8192 18.1054C16.309 19.0034 15.8195 19.9132 15.3512 20.8343C14.7044 19.2773 14.1509 17.7463 13.699 16.2679C15.1826 15.9311 16.7647 15.6557 18.4133 15.4466C17.8615 16.3201 17.33 17.2065 16.8192 18.1052V18.1054ZM18.4606 31.5771C16.7574 31.3842 15.1515 31.123 13.6683 30.7952C14.1273 29.2904 14.693 27.7268 15.3538 26.1365C15.824 27.0582 16.3155 27.9687 16.8279 28.867C17.3548 29.7905 17.9004 30.6951 18.4606 31.5771ZM26.0863 37.9737C25.0333 36.8209 23.9832 35.5455 22.9576 34.1739C23.9533 34.2135 24.9683 34.2337 26 34.2337C27.0599 34.2337 28.1076 34.2095 29.1389 34.1629C28.1263 35.5593 27.104 36.8366 26.0863 37.9737ZM36.689 26.0552C37.3841 27.6631 37.97 29.2185 38.4351 30.6975C36.9275 31.0467 35.2997 31.3279 33.5845 31.5367C34.1341 30.6525 34.6663 29.7573 35.1808 28.8515C35.704 27.9309 36.2068 26.9986 36.689 26.0552ZM33.2566 27.7252C32.469 29.1138 31.637 30.4761 30.7621 31.8099C29.1772 31.9238 27.5888 31.9804 26 31.9795C24.3817 31.9795 22.8077 31.9284 21.292 31.8286C20.3942 30.4979 19.5464 29.1333 18.7503 27.7376H18.7505C17.9581 26.3492 17.218 24.9308 16.5317 23.4855C17.2163 22.0398 17.9541 20.6208 18.7438 19.2314L18.7436 19.2316C19.5329 17.8418 20.374 16.483 21.265 15.158C22.8113 15.0393 24.3971 14.9775 25.9998 14.9775H26C27.61 14.9775 29.1978 15.0399 30.7438 15.1595C31.6258 16.4825 32.4615 17.8366 33.2493 19.2194C34.0416 20.6058 34.7892 22.0179 35.491 23.4535C34.7964 24.9039 34.0512 26.3287 33.2566 27.7252ZM37.8391 2.5505C39.5803 3.56966 40.2575 7.67948 39.1635 13.069C39.0936 13.4129 39.0152 13.7631 38.9299 14.1183C36.7723 13.6128 34.4297 13.237 31.977 13.0035C30.5482 10.9386 29.0676 9.06124 27.5813 7.43603C27.9708 7.05498 28.3696 6.68381 28.7773 6.32287C32.6164 2.93248 36.2044 1.5938 37.8391 2.5505ZM26 18.7193C28.5645 18.7193 30.6434 20.8292 30.6434 23.4317C30.6434 26.0342 28.5645 28.1441 26 28.1441C23.4355 28.1441 21.3566 26.0342 21.3566 23.4317C21.3566 20.8292 23.4355 18.7193 26 18.7193Z" fill="#00D8FF"/>
</g>
<defs>
<clipPath id="clip0_1_76">
<rect width="52" height="47" fill="white"/>
</clipPath>
</defs>
</svg>
