<svg width="48" height="29" viewBox="0 0 48 29" fill="none" xmlns="http://www.w3.org/2000/svg">
<g clip-path="url(#clip0_1_93)">
<path d="M13.5735 10.5079C13.5735 11.1025 13.6372 11.5845 13.7484 11.938C13.8896 12.3357 14.0596 12.7223 14.2569 13.0947C14.3364 13.2232 14.3681 13.3518 14.3681 13.4643C14.3681 13.6249 14.2729 13.7856 14.0662 13.9463L13.065 14.6211C12.9219 14.7176 12.7789 14.7657 12.6516 14.7657C12.4927 14.7657 12.3337 14.6854 12.1747 14.5408C11.9606 14.3081 11.7691 14.0552 11.6027 13.7856C11.4437 13.5127 11.2847 13.2071 11.1099 12.8377C9.87018 14.3158 8.31243 15.055 6.43706 15.055C5.10206 15.055 4.03706 14.6693 3.25818 13.8982C2.4795 13.1268 2.08218 12.0985 2.08218 10.8132C2.08218 9.44756 2.559 8.33892 3.52856 7.50342C4.49793 6.66792 5.7855 6.25017 7.42256 6.25017C7.96293 6.25017 8.51925 6.29831 9.10725 6.37868C9.69543 6.45904 10.2994 6.58755 10.9352 6.73217V5.55928C10.9352 4.33806 10.6807 3.48664 10.188 2.98852C9.6795 2.4904 8.82112 2.2493 7.59731 2.2493C7.041 2.2493 6.46893 2.31375 5.88075 2.45837C5.29275 2.6028 4.7205 2.77964 4.16418 3.00463C3.90993 3.11703 3.71925 3.18128 3.60787 3.21351C3.49668 3.24573 3.41718 3.26165 3.35362 3.26165C3.13106 3.26165 3.01987 3.10092 3.01987 2.76353V1.97617C3.01987 1.71915 3.05175 1.52639 3.13106 1.41399C3.21056 1.3014 3.35362 1.189 3.57618 1.0766C4.1325 0.787362 4.8 0.546264 5.57868 0.353499C6.35775 0.144623 7.18425 0.0483355 8.05837 0.0483355C9.94987 0.0483355 11.3327 0.482009 12.2227 1.34973C13.0969 2.21727 13.542 3.53478 13.542 5.30226V10.5079H13.5739H13.5735ZM7.1205 12.9501C7.64512 12.9501 8.1855 12.8538 8.75756 12.6609C9.32981 12.4681 9.8385 12.1146 10.2675 11.6326C10.5219 11.3274 10.7126 10.9901 10.8079 10.6043C10.9033 10.2188 10.9669 9.75272 10.9669 9.20646V8.53169C10.4849 8.41309 9.99666 8.32191 9.50456 8.25856C9.00904 8.19494 8.51006 8.16271 8.01056 8.16208C6.94556 8.16208 6.16687 8.37096 5.64243 8.80482C5.11781 9.23868 4.86356 9.8492 4.86356 10.6525C4.86356 11.4076 5.05425 11.97 5.45156 12.3557C5.83312 12.7573 6.38943 12.9501 7.1205 12.9501ZM19.8834 14.6854C19.5973 14.6854 19.4066 14.6372 19.2795 14.5246C19.1524 14.4284 19.041 14.2034 18.9457 13.8982L15.2107 1.47824C15.1151 1.15678 15.0675 0.947904 15.0675 0.835505C15.0675 0.578486 15.1946 0.433675 15.4491 0.433675H17.0066C17.3085 0.433675 17.5153 0.482009 17.6265 0.594407C17.7536 0.690885 17.8491 0.915871 17.9443 1.22103L20.6145 11.8576L23.094 1.22103C23.1735 0.89976 23.2689 0.690885 23.3959 0.594407C23.5232 0.49812 23.7457 0.433865 24.0319 0.433865H25.3033C25.6052 0.433865 25.812 0.482009 25.9389 0.594407C26.0662 0.690885 26.1774 0.915871 26.241 1.22103L28.7524 11.9861L31.5019 1.22103C31.5971 0.89976 31.7085 0.690885 31.8197 0.594407C31.9468 0.49812 32.1534 0.433865 32.4396 0.433865H33.9176C34.1721 0.433865 34.3151 0.562375 34.3151 0.835505C34.3151 0.915871 34.2992 0.996237 34.2832 1.09253C34.2673 1.189 34.2356 1.31751 34.1721 1.49436L30.3414 13.9141C30.2462 14.2356 30.135 14.4445 30.0077 14.5408C29.8806 14.6372 29.6739 14.7015 29.4039 14.7015H28.0371C27.735 14.7015 27.5284 14.6533 27.4011 14.5408C27.2739 14.4284 27.1627 14.2195 27.0992 13.8982L24.6354 3.53478L22.1878 13.8819C22.1085 14.2034 22.0131 14.4122 21.8859 14.5246C21.7588 14.6372 21.5362 14.6854 21.2503 14.6854H19.8832H19.8834ZM40.3072 15.1192C39.4807 15.1192 38.6542 15.0228 37.8596 14.83C37.0648 14.6372 36.4451 14.4282 36.0319 14.1874C35.7774 14.0426 35.6025 13.8821 35.5391 13.7375C35.4772 13.5957 35.4447 13.4425 35.4437 13.2875V12.4681C35.4437 12.1307 35.5708 11.97 35.8093 11.97C35.9066 11.9704 36.0033 11.9867 36.0954 12.0183C36.1907 12.0505 36.3337 12.1146 36.4927 12.1789C37.0541 12.4285 37.6402 12.617 38.241 12.7412C38.8636 12.869 39.4972 12.9335 40.1325 12.934C41.1337 12.934 41.9126 12.7573 42.453 12.4039C42.9934 12.0504 43.2795 11.5363 43.2795 10.8775C43.2795 10.4277 43.1364 10.0581 42.8503 9.75272C42.5642 9.44756 42.0238 9.17443 41.2451 8.91722L38.9404 8.1943C37.7801 7.8247 36.9219 7.27843 36.3973 6.55533C35.8729 5.84834 35.6027 5.06117 35.6027 4.22566C35.6027 3.55089 35.7457 2.9563 36.0319 2.44207C36.3178 1.92803 36.6994 1.47824 37.1762 1.12475C37.653 0.755139 38.1934 0.482009 38.8292 0.289244C39.4648 0.0964793 40.1323 0.0161133 40.8317 0.0161133C41.1814 0.0161133 41.547 0.0322244 41.8967 0.0803682C42.2623 0.128512 42.5961 0.192767 42.9298 0.257022C43.2476 0.337388 43.5497 0.417754 43.8358 0.514231C44.1219 0.610519 44.3443 0.706996 44.5033 0.803283C44.7259 0.931983 44.8847 1.06049 44.9801 1.20511C45.0756 1.33362 45.1232 1.51028 45.1232 1.73526V2.4904C45.1232 2.82779 44.9961 3.00463 44.7576 3.00463C44.6304 3.00463 44.4238 2.94019 44.1538 2.81168C43.2476 2.39392 42.2304 2.18505 41.1021 2.18505C40.1961 2.18505 39.4807 2.32967 38.988 2.63502C38.4954 2.94019 38.241 3.40627 38.241 4.06493C38.241 4.5149 38.4 4.90043 38.7178 5.20579C39.0358 5.51095 39.6238 5.8163 40.4662 6.08943L42.7232 6.81254C43.8675 7.18215 44.694 7.69619 45.1867 8.35485C45.6795 9.01369 45.918 9.76883 45.918 10.6043C45.918 11.2952 45.7747 11.9218 45.5046 12.4681C45.2186 13.0144 44.8371 13.4964 44.3443 13.8821C43.8516 14.2837 43.2636 14.573 42.5801 14.7819C41.8648 15.0068 41.1178 15.1192 40.3072 15.1192Z" fill="#252F3E"/>
<path d="M43.3112 22.9278C38.0822 26.8322 30.4847 28.9049 23.9524 28.9049C14.7973 28.9049 6.54844 25.4825 0.318004 19.7947C-0.174746 19.3449 0.270192 18.7344 0.858192 19.0877C7.59732 23.0404 15.9099 25.4343 24.5087 25.4343C30.3099 25.4343 36.6834 24.2133 42.5484 21.7068C43.4226 21.305 44.1696 22.2853 43.3112 22.9278ZM45.4888 20.4213C44.8213 19.5538 41.0702 20.0036 39.3696 20.2124C38.8609 20.2769 38.7814 19.8269 39.2424 19.4895C42.2304 17.3685 47.1418 17.9792 47.7139 18.6861C48.2861 19.4092 47.5549 24.3738 44.7576 26.7518C44.3286 27.1215 43.9153 26.9287 44.106 26.4467C44.7416 24.8559 46.1563 21.2729 45.4888 20.4213Z" fill="#FF9900"/>
</g>
<defs>
<clipPath id="clip0_1_93">
<rect width="48" height="29" fill="white"/>
</clipPath>
</defs>
</svg>
