<svg width="43" height="60" viewBox="0 0 43 60" fill="none" xmlns="http://www.w3.org/2000/svg">
<g clip-path="url(#clip0_1_81)">
<path d="M21.4738 59.8484L3.97448 55.0414L0.0747452 11.7617H42.9253L39.0215 55.0348L21.4738 59.8484Z" fill="#264DE4"/>
<path d="M35.6794 52.2793L39.0153 15.3003H21.5V56.169L35.6794 52.2793Z" fill="#2965F1"/>
<path d="M9.01472 31.3522L9.49544 36.6603H21.5V31.3522H9.01472ZM8.04856 20.6086L8.53617 25.9167H21.5V20.6086H8.04856ZM21.5 45.138L21.4765 45.1441L15.5022 43.5479L15.1202 39.3145H9.73514L10.4866 47.649L21.4753 50.6673L21.5 50.6606V45.138Z" fill="#EBEBEB"/>
<path d="M10.1594 0H16.6565V2.68853H12.8765V5.37706H16.6568V8.06543H10.1594V0ZM17.956 0H24.4532V2.33784H20.6731V2.80537H24.4532V8.18244H17.9562V5.72742H21.7363V5.25989H17.9559V0H17.956ZM25.7528 0H32.25V2.33784H28.4699V2.80537H32.25V8.18244H25.7528V5.72742H29.5329V5.25989H25.753V0H25.7528Z" fill="black"/>
<path d="M33.951 31.3522L34.9194 20.6086H21.4815V25.9167H29.0405L28.5523 31.3522H21.4815V36.6603H28.0872L27.4644 43.5445L21.4814 45.1424V50.6648L32.4788 47.649L32.5594 46.7521L33.8202 32.7776L33.951 31.3522Z" fill="white"/>
</g>
<defs>
<clipPath id="clip0_1_81">
<rect width="43" height="60" fill="white"/>
</clipPath>
</defs>
</svg>
