<svg width="32" height="45" viewBox="0 0 32 45" fill="none" xmlns="http://www.w3.org/2000/svg">
<g clip-path="url(#clip0_1_87)">
<path d="M31.9444 8.82124L29.0392 41.2761L15.9805 44.8863L2.95773 41.2811L0.055603 8.82124H31.9444Z" fill="#E44D26"/>
<path d="M16 42.1267L26.5521 39.2095L29.0346 11.4753H16V42.1267Z" fill="#F16529"/>
<path d="M10.3525 19.4375H16V15.4564H5.98962L6.08512 16.5245L7.06637 27.4953H16V23.5142H10.7174L10.3525 19.4375ZM11.2522 29.4858H7.24475L7.804 35.7367L15.9816 38.0004L16 37.9955V33.8535L15.9825 33.8581L11.5365 32.6609L11.2522 29.4858Z" fill="#EBEBEB"/>
<path d="M3.02252 0H5.05127V1.99882H6.90715V0H8.93602V6.05294H6.90727V4.02607H5.0514V6.05294H3.02265V0H3.02252ZM11.6038 2.0073H9.81802V0H15.4198V2.0073H13.6329V6.05294H11.6041V2.0073H11.604H11.6038ZM16.3088 0H18.4241L19.7254 2.12684L21.0254 0H23.1416V6.05294H21.1211V3.05277L19.7254 5.20492H19.6904L18.2938 3.05277V6.05294H16.3088V0ZM24.1513 0H26.1806V4.05224H29.0336V6.05294H24.1511V0H24.1513Z" fill="black"/>
<path d="M15.9863 27.4952H20.9021L20.4386 32.6584L15.9861 33.8568V37.9986L24.1703 35.7367L24.2303 35.0641L25.1685 24.5832L25.2659 23.5142H15.9863V27.4952ZM15.9863 19.4278V19.4375H25.6291L25.7091 18.5427L25.8911 16.5245L25.9865 15.4564H15.9863V19.4279V19.4278Z" fill="white"/>
</g>
<defs>
<clipPath id="clip0_1_87">
<rect width="32" height="45" fill="white"/>
</clipPath>
</defs>
</svg>
